# xmcd
#
# Track frame offsets:
# 150
# 16292
# 31277
# 46941
# 62743
# 76795
# 92941
# 107325
# 120898
# 134931
# 149123
# 167661
# 184996
# 201718
# 217859
#
# Disc length: 3114 seconds
#
#
# Revision: 0
# Processed by: cddbd v1.5.2PL0 Copyright (c) Steve Scherf et al.
# Submitted via: FreeRIP 2.945 
#
DISCID=d70c280f
DTITLE=Luiz Claudio e Giuliano - Dois Apaixonados
DYEAR=2006
DGENRE=Country
TTITLE0=Olhe Pra Nós Dois(crowling back to you)
TTITLE1=Dois Apaixonados
TTITLE2=Fica
TTITLE3=De Bar Em Bar
TTITLE4=Com Você Pode Ser
TTITLE5=Momentos De Nós Dois
TTITLE6=1.000 Anos Te Amando
TTITLE7=Cerveja
TTITLE8=A Moda É Ser Peão
TTITLE9=Ah! Ah! Oh!Oh!
TTITLE10=Amor Verdadeiro
TTITLE11=Eu Quero Te Amar
TTITLE12=Só Sei Te Amar
TTITLE13=Mais Uma Vez
TTITLE14=Eu Sou Peão(vivo)
EXTD=
EXTT0=
EXTT1=
EXTT2=
EXTT3=
EXTT4=
EXTT5=
EXTT6=
EXTT7=
EXTT8=
EXTT9=
EXTT10=
EXTT11=
EXTT12=
EXTT13=
EXTT14=
PLAYORDER=
